<?xml version="1.0" encoding="UTF-8"?><svg id="a" xmlns="http://www.w3.org/2000/svg" width="846.38415" height="300.53428" viewBox="0 0 846.38415 300.53428"><path d="M548.48224,71.94159c-12.12169,0-23.005,1.9794-32.34678,5.88317-9.38332,3.91978-17.31045,9.3909-23.56076,16.26125-6.31936,6.94725-11.17522,15.29765-14.43286,24.81907-3.29525,9.59103-4.96645,20.28263-4.96645,31.77783,0,11.31472,1.6712,21.89321,4.96645,31.44213,3.2728,9.48269,8.1281,17.76235,14.43174,24.60828,6.29073,6.83189,14.21729,12.23284,23.5602,16.05298,9.34122,3.82069,20.22509,5.75799,32.34847,5.75799,12.12001,0,23.00388-1.93729,32.34847-5.75799,9.37659-3.85887,17.34582-9.30249,23.68538-16.17816,6.38672-6.93125,11.28413-15.21148,14.5558-24.6094,3.34184-9.59833,4.96645-19.84223,4.96645-31.31582,0-11.45338-1.6712-22.14498-4.96645-31.77783-3.34746-9.61798-8.24486-17.96838-14.55636-24.81767-6.39851-6.89841-14.3683-12.3701-23.68651-16.26265-9.34515-3.90378-20.22846-5.88317-32.34678-5.88317ZM75.13357,225.10982h25.18172v-63.53265h58.99508l11.30827-22.16631h-70.30335v-41.86905h68.50191l11.30827-22.16659h-104.99189v149.7346ZM738.55924,225.06828h32.42257V75.37522h-25.18088v117.23962l-.53779-.95826-65.29479-116.28135h-32.92331v149.69306h25.18088v-116.26143l66.33333,116.26143ZM433.44994,225.06828h28.79555l-29.6174-60.61576.2616-.12519c7.94846-3.80891,13.95008-9.30613,17.83814-16.33872,3.89648-7.04156,5.87195-15.6603,5.87195-25.61762,0-14.80336-4.14348-26.47259-12.31593-34.68377-8.21062-8.16936-20.20376-12.312-35.64428-12.312h-68.1039v149.69306h24.93051v-56.1203h42.01641l.07747.16673,25.88989,55.95357ZM195.32965,75.41732v108.01572c0,5.84444.85441,11.35093,2.53964,16.36735,1.64763,4.98273,4.27597,9.42767,7.81148,13.21356,3.51419,3.72021,8.00291,6.69828,13.34099,8.85002,5.37794,2.12535,11.7394,3.20375,18.90643,3.20375h32.9598c7.54315,0,13.80974-1.04808,19.15792-3.20375,5.33808-2.15174,9.82681-5.12981,13.34211-8.8517,3.47152-3.67642,6.0993-8.12136,7.8098-13.21188,1.68524-5.01585,2.54021-10.52235,2.54021-16.36735v-108.01572h-25.39139v108.01572c0,13.11251-6.64888,19.7614-19.76196,19.7614h-28.06015c-13.2798,0-20.01289-6.64888-20.01289-19.7614v-108.01572h-25.182ZM548.48224,206.16858c-7.22822,0-13.9731-1.2614-20.04601-3.74828-6.10716-2.50372-11.37002-6.14926-15.64149-10.83559-4.34838-4.72899-7.72166-10.61104-10.02497-17.48279-2.3499-6.99749-3.49173-14.64394-3.49173-23.37719,0-8.7776,1.17439-16.76929,3.49117-23.75303,2.28085-6.88662,5.65357-12.85288,10.02385-17.73288,4.33435-4.79748,9.5551-8.48569,15.51799-10.96302,5.90956-2.45544,12.59774-3.73761,19.88378-3.76989h0l.28742-.00693c15.01837,0,27.13669,4.93493,36.01871,14.69606,8.88651,9.76562,13.39208,23.72412,13.39208,41.48787,0,17.45837-4.50613,31.21983-13.3932,40.90236-8.88146,9.67692-20.99978,14.58331-36.01759,14.58331ZM407.25747,147.03287h-41.7913v-49.53317h41.7913c7.60209,0,13.52119,2.25784,17.59226,6.71063,4.16594,4.55609,6.10604,10.32699,6.10604,18.16065,0,7.91169-1.96985,14.06432-5.8551,18.28695-3.89199,4.23021-9.89529,6.37493-17.84319,6.37493Z" style="fill:#fff;"/></svg>