<svg width="44" height="44" viewBox="0 0 44 44" fill="none" xmlns="http://www.w3.org/2000/svg">
<path fill-rule="evenodd" clip-rule="evenodd" d="M21.5725 5.91486C21.8299 5.73574 22.1717 5.73574 22.4291 5.91486L33.5648 13.6623C34.2559 12.9964 35.1957 12.5869 36.2312 12.5869C38.3541 12.5869 40.0749 14.3079 40.0749 16.4308C40.0749 18.2971 38.745 19.8528 36.9812 20.2016L36.9808 36.8512C36.9807 37.2654 36.645 37.6012 36.2308 37.6012H17.669C17.2548 37.6012 16.919 37.2654 16.919 36.8512V22.619C16.919 22.2048 17.2548 21.869 17.669 21.869H27.5686C27.9828 21.869 28.3186 22.2048 28.3186 22.619V31.282C28.3186 31.6962 27.9828 32.032 27.5686 32.032C27.1544 32.032 26.8186 31.6962 26.8186 31.282V23.369H18.419V36.1012H35.4808L35.4812 20.2016C33.7174 19.8527 32.3876 18.2971 32.3876 16.4308C32.3876 15.8841 32.5017 15.364 32.7075 14.8931L22.0008 7.44417L8.52009 16.8229L8.5197 30.6046C10.2835 30.9535 11.6133 32.5092 11.6133 34.3754C11.6133 36.4983 9.89255 38.2193 7.76968 38.2193C5.64682 38.2193 3.92603 36.4983 3.92603 34.3754C3.92603 32.5091 5.2559 30.9535 7.0197 30.6046L7.0201 16.431C7.02011 16.1855 7.14026 15.9556 7.34178 15.8154L21.5725 5.91486ZM36.2312 14.0869C34.9369 14.0869 33.8876 15.1362 33.8876 16.4308C33.8876 17.7254 34.9369 18.7748 36.2312 18.7748C37.5255 18.7748 38.5749 17.7254 38.5749 16.4308C38.5749 15.1362 37.5255 14.0869 36.2312 14.0869ZM7.76968 32.0314C6.47538 32.0314 5.42603 33.0808 5.42603 34.3754C5.42603 35.67 6.47538 36.7193 7.76968 36.7193C9.06398 36.7193 10.1133 35.67 10.1133 34.3754C10.1133 33.0808 9.06399 32.0314 7.76968 32.0314Z" fill="black"/>
</svg>
