<?xml version="1.0" standalone="no"?>
<!DOCTYPE svg PUBLIC "-//W3C//DTD SVG 20010904//EN"
 "http://www.w3.org/TR/2001/REC-SVG-20010904/DTD/svg10.dtd">
<svg version="1.0" xmlns="http://www.w3.org/2000/svg"
 width="992.000000pt" height="1056.000000pt" viewBox="0 0 992.000000 1056.000000"
 preserveAspectRatio="xMidYMid meet">

<g transform="translate(0.000000,1056.000000) scale(0.100000,-0.100000)"
fill="#000000" stroke="none">
<path d="M4870 10264 c-8 -1 -54 -6 -102 -9 -60 -5 -88 -11 -88 -19 0 -8 -33
-17 -95 -25 -59 -9 -95 -18 -95 -25 0 -7 -39 -20 -95 -31 -58 -11 -95 -23 -95
-31 0 -6 -22 -17 -50 -24 -27 -7 -50 -18 -50 -24 0 -12 -61 -36 -89 -36 -17 0
-42 -26 -33 -35 4 -4 3 -5 -3 -4 -15 4 -55 -11 -55 -22 0 -5 -9 -9 -20 -9 -11
0 -20 -4 -20 -9 0 -5 -13 -12 -30 -16 -16 -4 -30 -11 -30 -16 0 -5 -8 -13 -17
-16 -10 -4 -25 -14 -33 -23 -8 -9 -30 -22 -47 -29 -18 -8 -33 -19 -33 -26 0
-7 -13 -18 -30 -25 -16 -7 -30 -18 -30 -26 0 -7 -16 -18 -35 -25 -19 -7 -35
-16 -35 -20 0 -10 -71 -80 -100 -99 -12 -8 -28 -21 -34 -28 -6 -7 -28 -32 -48
-54 -21 -23 -38 -48 -38 -57 0 -9 -14 -24 -30 -33 -17 -9 -30 -24 -30 -32 0
-8 -9 -18 -20 -21 -11 -3 -20 -15 -20 -26 0 -11 -11 -24 -25 -31 -14 -6 -25
-19 -25 -28 0 -9 -9 -26 -20 -38 -11 -12 -20 -24 -20 -27 0 -4 -7 -13 -15 -21
-8 -9 -15 -23 -15 -33 0 -10 -11 -26 -24 -37 -14 -10 -31 -37 -38 -61 -7 -24
-16 -43 -20 -43 -4 0 -8 -7 -8 -15 0 -8 -4 -15 -8 -15 -5 0 -15 -18 -22 -40
-7 -22 -17 -40 -22 -40 -4 0 -8 -7 -8 -15 0 -8 -4 -15 -10 -15 -5 0 -10 -8
-10 -17 0 -35 -21 -93 -34 -93 -8 0 -18 -26 -26 -70 -7 -38 -17 -70 -22 -70
-4 0 -8 -9 -8 -20 0 -11 -4 -20 -9 -20 -5 0 -14 -36 -22 -80 -7 -44 -16 -80
-21 -80 -4 0 -8 -13 -8 -30 0 -16 -4 -30 -8 -30 -10 0 -32 -200 -32 -284 0
-31 -4 -56 -10 -56 -5 0 -10 -23 -10 -50 0 -48 -1 -51 -30 -56 -16 -4 -30 -10
-30 -15 0 -5 -7 -9 -15 -9 -8 0 -15 -4 -15 -10 0 -5 -9 -10 -20 -10 -11 0 -23
-7 -26 -15 -4 -8 -10 -15 -15 -15 -11 0 -79 -68 -79 -78 0 -4 -9 -13 -20 -20
-11 -7 -20 -21 -20 -31 0 -11 -8 -22 -18 -25 -12 -4 -23 -25 -32 -56 -8 -28
-17 -50 -22 -50 -4 0 -8 -13 -8 -30 0 -16 -4 -30 -10 -30 -7 0 -10 -177 -10
-510 0 -333 3 -510 10 -510 6 0 10 -13 10 -30 0 -16 4 -30 10 -30 5 0 13 -18
16 -41 4 -22 13 -43 20 -46 8 -3 14 -13 14 -23 0 -10 7 -20 15 -24 8 -3 15
-15 15 -26 0 -12 10 -25 23 -31 13 -6 27 -20 32 -32 6 -12 20 -23 32 -25 12
-2 25 -12 28 -23 4 -10 15 -19 26 -19 11 0 22 -7 25 -15 4 -8 12 -15 20 -15
12 0 14 -190 14 -1259 0 -1139 -2 -1259 -16 -1265 -9 -3 -24 -6 -35 -6 -10 0
-19 -6 -19 -14 0 -8 -22 -18 -60 -27 -34 -7 -60 -19 -60 -25 0 -7 -27 -21 -60
-31 -33 -9 -60 -23 -60 -29 0 -7 -15 -17 -34 -24 -19 -6 -36 -19 -39 -30 -3
-12 -14 -20 -26 -20 -12 0 -24 -7 -27 -15 -4 -8 -12 -15 -18 -15 -7 0 -25 -13
-39 -30 -15 -16 -31 -30 -36 -30 -5 0 -11 -9 -14 -20 -3 -12 -14 -20 -26 -20
-14 0 -25 -9 -31 -25 -5 -14 -21 -30 -35 -35 -14 -5 -25 -15 -25 -23 0 -25
-24 -64 -45 -73 -11 -5 -22 -20 -23 -33 -2 -13 -12 -26 -22 -28 -11 -3 -24
-20 -30 -39 -7 -19 -16 -34 -21 -34 -5 0 -9 -7 -9 -15 0 -8 -4 -15 -9 -15 -5
0 -14 -20 -20 -45 -6 -25 -17 -45 -24 -45 -12 0 -30 -46 -42 -112 -4 -21 -12
-38 -19 -38 -7 0 -19 -46 -31 -120 -11 -75 -23 -120 -30 -120 -8 0 -19 -45
-30 -120 -12 -77 -23 -120 -31 -120 -7 0 -17 -32 -25 -85 -7 -47 -16 -85 -21
-85 -4 0 -8 -16 -8 -35 0 -19 -4 -35 -9 -35 -8 0 -14 -29 -28 -142 -3 -27 -11
-48 -17 -48 -8 0 -19 -44 -31 -115 -11 -66 -23 -115 -30 -115 -6 0 -19 -50
-30 -120 -12 -76 -23 -120 -31 -120 -20 0 -36 -143 -22 -189 11 -34 17 -40 60
-52 26 -7 48 -18 48 -26 0 -7 20 -18 45 -24 25 -6 45 -15 45 -20 0 -5 7 -9 15
-9 8 0 15 -4 15 -10 0 -5 9 -10 19 -10 11 0 26 -7 35 -15 8 -8 24 -15 35 -15
12 0 21 -4 21 -10 0 -5 12 -13 27 -16 15 -4 34 -13 41 -21 7 -7 24 -13 38 -13
13 0 24 -4 24 -10 0 -5 7 -10 16 -10 8 0 22 -7 30 -15 9 -8 26 -15 40 -15 13
0 24 -4 24 -10 0 -5 9 -10 20 -10 11 0 20 -4 20 -10 0 -5 12 -12 27 -16 55
-12 63 -16 63 -30 0 -8 7 -14 15 -14 39 0 115 -23 115 -35 0 -8 25 -18 70 -26
39 -7 70 -16 70 -21 0 -4 11 -8 25 -8 14 0 25 -4 25 -9 0 -5 18 -12 40 -16 22
-4 40 -10 40 -15 0 -4 23 -11 50 -15 28 -4 50 -11 50 -16 0 -5 14 -9 30 -9 17
0 30 -4 30 -9 0 -5 20 -12 45 -15 25 -4 45 -11 45 -17 0 -5 14 -9 30 -9 17 0
30 -3 30 -8 0 -8 113 -32 150 -32 11 0 20 -6 20 -13 0 -13 118 -37 178 -37 12
0 22 -6 22 -13 0 -13 185 -47 258 -47 22 0 32 -5 32 -15 0 -8 5 -15 12 -15 65
0 238 -25 238 -35 0 -10 225 -36 318 -35 18 0 31 -4 28 -8 -3 -5 27 -10 67
-11 39 -1 74 -6 77 -11 3 -4 98 -11 213 -16 114 -4 207 -11 207 -15 0 -5 203
-9 451 -9 247 0 448 4 445 8 -3 5 88 12 202 16 115 4 208 11 210 16 2 6 37 10
78 10 41 0 74 4 74 8 0 5 74 14 165 21 117 10 165 17 165 26 0 8 25 15 73 19
39 4 100 10 135 13 38 3 62 10 62 18 0 11 32 16 243 42 27 3 47 11 47 18 0 8
33 17 90 25 56 8 90 17 90 25 0 7 33 17 85 24 47 7 85 17 85 22 0 5 14 9 30 9
17 0 30 4 30 9 0 5 25 13 55 16 30 4 55 11 55 16 0 5 7 9 15 9 8 0 15 4 15 9
0 5 25 13 55 16 30 4 53 11 50 15 -3 4 19 11 48 14 36 5 58 13 67 26 15 21 36
28 24 9 -3 -6 4 -4 17 4 13 9 45 19 72 22 28 4 47 12 47 20 0 7 12 15 28 18
15 4 42 9 60 13 17 3 32 12 32 19 0 15 13 20 73 31 20 3 37 10 37 15 0 5 7 9
15 9 8 0 15 4 15 9 0 5 19 12 42 16 24 4 50 16 58 25 9 10 34 22 55 26 22 4
46 13 53 21 7 7 20 13 29 13 9 0 23 8 32 18 9 11 34 22 56 26 21 4 46 16 55
25 8 10 36 24 63 31 26 8 47 20 47 27 0 7 18 17 40 23 29 8 40 16 40 30 0 11
7 20 15 20 12 0 15 13 15 55 0 40 -4 55 -14 55 -9 0 -17 27 -26 95 -8 61 -17
95 -25 95 -8 0 -18 42 -30 120 -12 77 -23 120 -31 120 -8 0 -18 43 -30 120
-11 72 -23 120 -30 120 -6 0 -16 33 -23 77 -6 43 -14 93 -17 111 -3 17 -11 32
-18 32 -11 0 -23 59 -43 212 -3 21 -11 38 -17 38 -8 0 -17 34 -25 90 -10 63
-18 90 -27 90 -8 0 -14 8 -15 18 -2 53 -32 172 -44 172 -6 0 -19 27 -28 60
-11 37 -24 60 -33 60 -8 0 -14 9 -14 19 0 11 -4 23 -10 26 -5 3 -10 15 -10 27
0 11 -8 22 -18 25 -10 2 -24 20 -31 39 -7 19 -18 34 -24 34 -7 0 -18 14 -24
31 -7 17 -20 33 -30 35 -18 5 -43 46 -43 71 0 7 -16 19 -35 27 -19 8 -35 21
-35 29 0 8 -9 17 -20 20 -11 3 -24 17 -30 31 -5 14 -17 26 -25 26 -9 0 -26 11
-39 25 -13 14 -28 25 -34 25 -5 0 -12 7 -16 15 -3 8 -15 15 -27 15 -12 0 -23
8 -26 18 -3 12 -22 23 -54 32 -28 8 -49 19 -49 27 0 8 -6 15 -12 17 -7 3 -34
10 -60 17 -27 7 -48 19 -48 25 0 15 -15 20 -74 29 -29 5 -46 12 -46 21 0 8 -6
15 -12 15 -7 1 -20 2 -28 3 -13 1 -15 148 -18 1251 -1 688 0 1260 3 1273 3 13
13 22 24 22 11 0 26 7 35 15 8 8 17 15 20 15 3 0 15 9 26 20 11 11 27 20 35
20 8 0 15 7 15 15 0 8 9 20 20 27 11 7 20 20 20 29 0 9 7 19 15 23 8 3 15 15
15 27 0 12 8 23 19 26 11 3 22 18 26 36 4 18 9 34 10 37 4 10 19 135 17 143
-1 4 5 7 13 7 13 0 15 54 15 430 0 376 -2 430 -15 430 -10 0 -15 10 -15 33 0
28 -6 58 -25 145 -3 12 -12 22 -20 22 -8 0 -15 9 -15 19 0 11 -4 23 -10 26 -5
3 -10 15 -10 25 0 10 -9 22 -21 25 -11 4 -24 18 -29 31 -5 13 -16 24 -23 24
-8 0 -23 11 -33 25 -10 14 -23 25 -28 25 -5 0 -19 11 -32 25 -13 14 -30 25
-39 25 -8 0 -15 5 -15 10 0 6 -9 10 -20 10 -10 0 -31 5 -45 12 -24 11 -25 14
-25 115 0 56 -4 103 -8 103 -4 0 -14 55 -21 123 -7 67 -17 124 -22 125 -5 2
-9 21 -9 43 0 21 -4 39 -9 39 -5 0 -15 32 -22 70 -7 41 -17 70 -24 70 -7 0
-15 18 -19 41 -10 62 -30 119 -41 119 -6 0 -16 24 -23 53 -7 28 -17 54 -22 55
-6 2 -10 10 -10 18 0 8 -4 14 -10 14 -5 0 -10 9 -10 19 0 11 -5 23 -10 26 -6
4 -8 10 -5 15 3 5 -6 20 -20 34 -14 14 -25 32 -25 40 0 8 -4 18 -10 21 -5 3
-10 15 -10 25 0 10 -9 22 -20 25 -11 3 -20 13 -20 21 0 18 -20 54 -41 74 -8 8
-21 29 -28 47 -7 17 -21 33 -32 36 -11 3 -19 14 -19 26 0 13 -10 26 -25 33
-14 6 -25 17 -25 25 0 7 -9 18 -20 25 -11 7 -20 18 -20 25 0 6 -22 34 -50 62
-27 28 -50 55 -50 61 0 5 -11 12 -24 16 -14 3 -27 12 -30 20 -3 8 -12 14 -21
14 -8 0 -15 4 -15 9 0 14 -45 61 -59 61 -6 0 -11 5 -11 10 0 6 -11 16 -25 22
-14 6 -25 17 -25 24 0 7 -9 16 -21 19 -11 4 -33 20 -50 36 -16 16 -36 29 -44
29 -8 0 -15 4 -15 8 0 5 -17 17 -37 28 -38 19 -52 29 -78 52 -7 6 -21 12 -29
12 -9 0 -16 4 -16 10 0 5 -12 13 -27 16 -16 4 -35 15 -43 24 -8 9 -36 23 -62
30 -27 8 -48 20 -48 26 0 7 -25 18 -55 25 -30 7 -55 18 -55 24 0 11 -128 45
-171 45 -14 0 -19 5 -16 14 4 11 -16 17 -89 27 -57 7 -94 17 -94 24 0 18 -238
35 -470 34 -113 -1 -212 -3 -220 -5z m548 -233 c2 -6 24 -11 48 -11 24 0 44
-4 44 -9 0 -5 29 -12 65 -16 36 -3 65 -11 65 -16 0 -5 16 -9 35 -9 19 0 35 -4
35 -9 0 -6 20 -13 45 -17 25 -3 45 -10 45 -15 0 -5 10 -9 23 -9 13 0 32 -7 43
-15 10 -8 27 -15 36 -15 9 0 18 -4 20 -10 2 -5 27 -15 56 -22 28 -7 52 -18 52
-24 0 -6 18 -16 40 -23 21 -6 42 -17 46 -23 4 -7 3 -8 -4 -4 -7 4 -12 3 -12
-2 0 -4 22 -14 50 -22 31 -9 52 -20 56 -32 3 -10 11 -18 19 -18 7 0 27 -13 45
-30 18 -16 38 -30 46 -30 8 0 14 -4 14 -10 0 -5 11 -12 25 -16 13 -3 27 -15
30 -25 4 -10 17 -22 31 -25 14 -4 23 -9 20 -12 -7 -6 33 -42 46 -42 5 0 13
-11 18 -24 5 -14 19 -26 32 -28 13 -2 27 -13 33 -25 5 -12 19 -26 32 -32 13
-6 23 -18 23 -26 0 -9 11 -20 25 -25 14 -5 25 -17 25 -26 0 -9 12 -29 28 -44
41 -41 62 -69 62 -83 0 -7 9 -18 20 -25 11 -7 20 -20 20 -30 0 -11 11 -24 25
-30 15 -7 25 -20 25 -32 0 -11 7 -23 15 -26 8 -4 15 -15 15 -25 0 -10 4 -19 8
-19 5 0 15 -18 22 -40 7 -22 19 -40 25 -40 7 0 18 -21 25 -47 8 -27 21 -55 29
-63 17 -16 41 -76 41 -103 0 -9 5 -17 10 -17 6 0 10 -9 10 -20 0 -11 4 -20 8
-20 5 0 14 -31 21 -70 7 -38 17 -70 22 -70 5 0 9 -11 9 -25 0 -14 4 -25 9 -25
5 0 15 -47 22 -105 7 -58 16 -105 21 -105 4 0 8 -29 8 -65 0 -37 4 -65 10 -65
6 0 10 -27 10 -60 l0 -60 -54 0 c-62 0 -66 6 -66 98 0 28 -4 52 -10 52 -5 0
-10 18 -10 40 0 22 -4 40 -8 40 -5 0 -14 41 -21 90 -7 50 -17 90 -22 90 -5 0
-9 11 -9 25 0 14 -4 25 -8 25 -5 0 -14 29 -21 65 -9 43 -18 65 -27 65 -8 0
-14 7 -14 15 0 24 -24 95 -32 95 -5 0 -8 9 -8 20 0 11 -4 20 -10 20 -5 0 -14
17 -19 38 -6 20 -20 44 -31 52 -11 8 -23 29 -26 48 -4 18 -13 36 -20 39 -8 3
-14 11 -14 19 0 8 -4 14 -9 14 -5 0 -14 13 -19 30 -6 16 -22 41 -36 55 -15 14
-26 33 -26 41 0 8 -11 19 -25 24 -14 5 -25 16 -25 25 0 8 -11 21 -25 27 -14 6
-25 19 -25 28 0 17 -35 60 -49 60 -4 0 -13 11 -19 25 -7 14 -20 25 -31 25 -11
0 -23 9 -26 21 -4 11 -18 25 -31 31 -13 6 -24 17 -24 25 0 8 -13 19 -29 24
-16 6 -31 19 -34 29 -3 10 -15 20 -28 22 -13 1 -28 13 -34 26 -5 12 -15 22
-23 22 -17 0 -51 20 -79 48 -13 12 -31 22 -39 22 -8 0 -26 11 -40 25 -14 14
-31 25 -39 25 -8 0 -15 4 -15 9 0 5 -13 12 -30 16 -16 4 -30 11 -30 16 0 5
-11 9 -25 9 -14 0 -25 4 -25 9 0 5 -13 12 -30 16 -16 4 -30 11 -30 16 0 5 -11
9 -25 9 -14 0 -25 4 -25 9 0 5 -29 14 -65 21 -38 7 -65 17 -65 25 0 12 -108
35 -164 35 -16 0 -26 6 -26 14 0 18 -136 30 -360 31 -233 0 -403 -13 -396 -31
4 -10 -4 -14 -27 -15 -18 0 -41 -2 -52 -4 -11 -2 -39 -7 -62 -10 -25 -4 -43
-12 -43 -19 0 -8 -27 -18 -70 -26 -38 -7 -70 -17 -70 -22 0 -4 -9 -8 -20 -8
-11 0 -20 -4 -20 -9 0 -5 -16 -12 -35 -15 -19 -4 -35 -11 -35 -16 0 -6 -7 -10
-15 -10 -8 0 -15 -4 -15 -9 0 -5 -16 -12 -35 -15 -19 -4 -35 -11 -35 -15 0 -5
-11 -12 -25 -15 -14 -4 -25 -11 -25 -16 0 -6 -7 -10 -15 -10 -8 0 -15 -4 -15
-10 0 -5 -7 -10 -15 -10 -9 0 -18 -7 -21 -15 -4 -8 -15 -15 -25 -15 -10 0 -19
-4 -19 -9 0 -5 -15 -15 -34 -22 -19 -7 -34 -17 -33 -22 1 -6 -17 -19 -40 -31
-24 -12 -43 -27 -43 -34 0 -8 -13 -19 -30 -25 -16 -6 -30 -15 -30 -18 0 -4
-21 -30 -47 -57 -27 -28 -53 -56 -60 -64 -6 -7 -23 -22 -37 -33 -14 -11 -25
-25 -26 -32 0 -7 -9 -17 -20 -23 -11 -6 -20 -19 -20 -29 0 -10 -11 -23 -25
-29 -14 -6 -25 -18 -25 -26 0 -8 -10 -25 -23 -38 -12 -13 -29 -38 -36 -55 -7
-18 -17 -33 -22 -33 -5 0 -9 -7 -9 -15 0 -8 -4 -15 -8 -15 -5 0 -15 -18 -22
-40 -7 -22 -17 -40 -22 -40 -4 0 -8 -7 -8 -15 0 -8 -4 -15 -10 -15 -5 0 -10
-9 -10 -19 0 -11 -4 -23 -10 -26 -5 -3 -10 -16 -10 -27 0 -11 -8 -28 -19 -37
-10 -9 -22 -31 -25 -49 -4 -17 -12 -32 -17 -32 -5 0 -9 -11 -9 -24 0 -13 -5
-26 -10 -28 -6 -2 -16 -34 -22 -71 -6 -37 -15 -67 -19 -67 -5 0 -9 -13 -9 -29
0 -16 -4 -31 -9 -33 -6 -1 -15 -51 -22 -110 -7 -60 -16 -108 -21 -108 -4 0 -8
-28 -8 -63 0 -35 -6 -75 -12 -90 -11 -24 -19 -27 -60 -27 -35 0 -48 4 -48 14
0 8 -6 17 -12 20 -10 5 -10 7 0 12 8 4 12 30 12 80 0 41 4 74 8 74 4 0 13 53
20 118 7 64 17 119 22 120 6 2 10 17 10 33 0 16 4 29 9 29 4 0 14 34 21 75 7
41 17 75 21 75 5 0 9 9 9 20 0 11 4 20 9 20 6 0 13 20 17 45 3 26 13 52 20 60
8 7 14 21 14 29 0 9 4 16 9 16 5 0 15 22 22 50 8 31 19 52 31 55 10 4 20 20
24 40 3 19 14 37 23 40 9 2 22 23 29 46 13 43 35 72 46 62 3 -4 6 3 6 13 0 11
9 30 20 42 11 12 20 26 20 32 0 5 5 10 10 10 6 0 16 12 23 28 6 15 24 39 40
54 15 15 27 31 27 36 0 5 11 14 25 20 14 6 25 18 25 25 0 8 11 20 25 27 14 7
25 19 25 26 0 8 14 20 30 29 17 9 30 22 30 30 0 8 10 20 22 26 12 6 32 22 45
35 13 13 28 24 33 24 5 0 12 9 15 20 3 11 13 20 21 20 8 0 22 9 31 20 10 11
22 20 28 20 6 0 17 9 25 20 8 10 26 22 41 25 16 4 31 14 34 24 3 11 25 23 55
31 34 9 49 18 46 27 -3 8 9 17 34 24 22 7 40 18 40 25 0 7 23 17 55 24 30 6
55 16 55 21 0 5 9 9 21 9 11 0 27 7 35 15 9 8 26 15 40 15 13 0 24 4 24 9 0 5
20 12 45 15 25 4 45 11 45 17 0 5 14 9 30 9 17 0 30 4 30 9 0 6 31 13 70 17
38 3 67 10 64 15 -3 5 15 9 40 9 25 0 46 4 46 10 0 14 99 18 365 15 161 -2
241 -7 243 -14z m-188 -389 c0 -5 48 -12 108 -16 59 -3 109 -11 110 -16 2 -6
19 -10 38 -10 19 0 34 -4 34 -9 0 -5 25 -13 55 -16 30 -4 55 -11 55 -16 0 -5
11 -9 25 -9 14 0 25 -4 25 -9 0 -4 27 -14 60 -20 38 -8 60 -17 60 -25 0 -8 12
-17 28 -20 85 -21 102 -28 102 -41 0 -8 6 -15 13 -15 22 0 67 -24 67 -36 0 -6
18 -17 40 -24 22 -7 42 -21 45 -32 4 -10 15 -18 26 -18 11 0 22 -7 25 -15 4
-8 11 -15 16 -15 6 0 21 -11 33 -24 12 -13 32 -27 43 -31 12 -3 22 -13 22 -21
0 -8 13 -23 29 -32 17 -9 32 -24 34 -34 3 -9 15 -18 28 -20 13 -2 26 -12 29
-23 5 -19 36 -57 93 -115 15 -15 27 -32 27 -38 0 -6 10 -21 23 -34 12 -13 29
-38 36 -55 7 -18 17 -33 22 -33 5 0 9 -7 9 -15 0 -8 4 -15 9 -15 10 0 27 -39
23 -53 -2 -5 6 -11 16 -14 12 -3 23 -21 32 -54 8 -27 17 -49 22 -49 4 0 8 -7
8 -15 0 -8 4 -15 9 -15 5 0 12 -20 15 -45 4 -25 14 -51 22 -59 8 -8 14 -24 14
-35 0 -12 4 -21 9 -21 5 0 15 -40 22 -90 7 -49 16 -90 21 -90 4 0 8 -18 8 -39
0 -22 4 -41 9 -43 14 -5 31 -273 31 -492 l0 -196 -36 0 c-19 0 -33 4 -30 9 3
5 -17 11 -44 15 -28 4 -50 11 -50 16 0 6 -7 10 -15 10 -8 0 -15 4 -15 9 0 5
-18 11 -40 15 -22 3 -40 10 -40 15 0 5 -13 12 -30 16 -16 4 -30 11 -30 16 0 5
-7 9 -15 9 -8 0 -15 4 -15 9 0 4 -20 14 -45 21 -25 7 -45 18 -45 25 0 7 -13
18 -30 25 -16 7 -30 18 -30 25 0 6 -19 18 -41 25 -23 8 -44 22 -46 31 -3 10
-18 22 -34 28 -16 5 -29 16 -29 24 0 8 -12 20 -27 26 -16 7 -41 28 -58 48 -42
50 -86 93 -96 93 -5 0 -9 7 -9 15 0 8 -9 23 -20 32 -11 10 -20 23 -20 30 0 6
-9 15 -20 18 -11 3 -20 15 -20 26 0 10 -9 24 -20 31 -11 7 -20 20 -20 29 0 9
-6 19 -14 22 -7 3 -16 21 -20 41 -4 21 -14 37 -25 41 -12 3 -21 19 -25 40 -4
19 -11 35 -16 35 -4 0 -12 14 -15 32 -4 17 -14 38 -21 46 -8 7 -14 24 -14 38
0 13 -4 24 -9 24 -5 0 -12 18 -16 40 -4 22 -11 40 -15 40 -5 0 -12 25 -15 55
-4 30 -11 55 -16 55 -5 0 -9 11 -9 25 0 14 -4 25 -10 25 -5 0 -10 9 -10 20 0
40 -98 54 -151 23 -16 -10 -29 -23 -29 -29 0 -7 -6 -19 -14 -26 -7 -8 -17 -29
-21 -46 -3 -18 -11 -32 -16 -32 -5 0 -11 -11 -15 -25 -3 -14 -10 -25 -14 -25
-4 0 -11 -11 -14 -25 -4 -14 -11 -25 -16 -25 -6 0 -10 -9 -10 -20 0 -11 -7
-23 -15 -26 -8 -4 -15 -14 -15 -23 0 -9 -9 -22 -20 -29 -11 -7 -20 -21 -20
-32 0 -11 -4 -20 -9 -20 -14 0 -61 -45 -61 -58 0 -11 -42 -58 -142 -162 -27
-27 -48 -52 -48 -56 0 -11 -34 -33 -51 -34 -9 0 -19 -8 -22 -19 -2 -10 -18
-24 -36 -32 -17 -8 -31 -19 -31 -25 0 -6 -12 -17 -27 -25 -16 -8 -37 -24 -48
-36 -11 -13 -25 -23 -31 -23 -5 0 -16 -9 -24 -20 -8 -11 -20 -20 -27 -20 -7 0
-13 -4 -13 -10 0 -5 -18 -14 -39 -21 -22 -7 -41 -19 -44 -29 -3 -10 -18 -21
-36 -25 -17 -4 -31 -12 -31 -19 0 -7 -27 -21 -60 -31 -33 -10 -60 -23 -60 -30
0 -6 -22 -18 -50 -25 -27 -7 -50 -19 -50 -26 0 -6 -27 -17 -60 -25 -33 -7 -60
-17 -60 -21 0 -4 -7 -8 -15 -8 -8 0 -15 -4 -15 -9 0 -6 -20 -13 -45 -17 -25
-3 -45 -10 -45 -14 0 -5 -25 -12 -55 -15 -30 -4 -55 -11 -55 -16 0 -5 -13 -9
-29 -9 -16 0 -31 -4 -33 -10 -1 -5 -36 -12 -75 -16 -40 -4 -73 -11 -73 -15 0
-5 -20 -9 -44 -9 -24 0 -46 -4 -48 -9 -1 -5 -66 -11 -143 -12 l-140 -4 2 319
c1 207 6 323 12 329 6 6 11 32 11 58 0 26 4 50 9 53 4 3 14 48 21 101 7 52 16
95 21 95 5 0 9 9 9 20 0 11 4 20 9 20 4 0 14 27 20 60 7 33 16 60 22 60 5 0 9
11 9 25 0 14 4 25 8 25 5 0 14 22 22 50 9 31 20 52 32 56 10 3 18 14 18 24 0
10 7 25 15 34 8 8 15 22 15 31 0 8 7 18 15 21 8 4 15 14 15 24 0 9 11 26 25
36 14 10 25 25 25 32 0 7 13 25 28 40 15 15 28 29 29 32 7 28 30 60 49 69 13
6 24 17 24 24 0 8 11 20 25 27 14 7 25 19 25 26 0 7 14 21 30 31 17 9 30 23
30 29 0 7 10 14 23 18 13 3 29 17 37 31 7 14 21 25 30 25 9 0 23 11 30 25 7
14 21 25 31 25 9 0 19 6 22 14 3 8 19 17 36 21 17 4 31 13 31 20 0 8 18 20 40
26 22 7 40 18 40 24 0 7 29 21 65 31 43 12 64 23 61 31 -3 7 -2 12 2 11 15 -4
112 24 112 33 0 5 11 9 25 9 14 0 25 4 25 9 0 5 27 12 60 16 33 4 57 11 54 16
-3 5 10 9 30 9 19 0 36 4 38 10 2 5 54 12 116 16 61 4 112 11 112 16 0 4 54 8
120 8 66 0 120 -4 120 -8z m314 -1264 c6 -7 18 -39 25 -70 7 -32 17 -58 22
-58 5 0 9 -7 9 -15 0 -8 4 -15 10 -15 5 0 12 -16 16 -36 4 -19 13 -38 20 -41
8 -3 14 -14 14 -24 0 -10 4 -19 9 -19 5 0 13 -10 17 -22 4 -13 17 -33 30 -45
13 -12 24 -26 24 -30 0 -11 29 -49 53 -71 9 -9 17 -23 17 -32 0 -8 14 -26 30
-39 17 -13 30 -29 30 -36 0 -6 11 -17 25 -23 14 -6 25 -18 25 -27 0 -8 14 -21
30 -30 17 -9 30 -22 30 -29 0 -8 14 -19 30 -25 17 -5 30 -16 30 -24 0 -8 11
-19 25 -25 14 -6 25 -16 25 -22 0 -5 5 -10 11 -10 7 0 22 -11 35 -25 13 -14
27 -25 32 -25 6 0 24 -13 42 -30 18 -16 38 -30 45 -30 8 0 16 -8 19 -18 4 -12
24 -23 56 -31 28 -7 50 -19 50 -26 0 -7 20 -18 45 -25 25 -7 45 -18 45 -24 0
-12 91 -46 123 -46 10 0 17 -6 17 -13 0 -8 24 -18 65 -26 40 -8 65 -18 65 -26
0 -8 20 -16 53 -20 28 -4 55 -13 59 -19 18 -26 -3 -400 -23 -420 -5 -6 -9 -27
-9 -48 0 -21 -4 -38 -8 -38 -5 0 -14 -42 -21 -92 -6 -51 -16 -94 -21 -96 -6
-2 -10 -17 -10 -33 0 -16 -4 -29 -8 -29 -5 0 -15 -33 -22 -72 -7 -43 -20 -79
-30 -88 -9 -8 -23 -45 -30 -82 -7 -43 -17 -68 -25 -68 -7 0 -19 -22 -26 -50
-7 -27 -16 -50 -21 -50 -4 0 -8 -9 -8 -20 0 -11 -4 -20 -9 -20 -5 0 -11 -13
-14 -29 -3 -16 -13 -36 -22 -44 -8 -9 -15 -20 -15 -26 0 -6 -4 -11 -9 -11 -5
0 -12 -16 -15 -36 -4 -19 -14 -38 -22 -41 -7 -3 -14 -14 -14 -24 0 -10 -4 -19
-8 -19 -4 0 -14 -16 -21 -35 -7 -19 -17 -35 -22 -35 -5 0 -9 -5 -9 -10 0 -6
-9 -20 -20 -32 -11 -12 -20 -30 -20 -39 0 -10 -9 -21 -20 -24 -11 -3 -20 -14
-20 -24 0 -10 -11 -27 -25 -37 -26 -20 -33 -48 -13 -60 6 -4 8 -3 5 3 -4 6 36
13 111 17 64 4 119 11 120 17 2 5 8 9 13 9 14 0 49 38 49 54 0 8 6 16 14 19 7
3 16 19 19 35 4 17 14 31 25 34 13 4 22 18 26 42 4 20 11 36 16 36 6 0 10 7
10 15 0 8 4 15 10 15 5 0 15 18 21 40 7 22 16 40 21 40 4 0 8 9 8 19 0 11 4
21 10 23 5 2 15 27 22 56 7 28 16 52 20 52 5 0 8 9 8 19 0 11 5 21 11 23 5 2
14 23 20 47 9 39 28 71 43 71 3 0 6 -5 6 -11 0 -28 34 -43 111 -47 l79 -5 0
-34 c0 -53 -22 -173 -31 -173 -5 0 -9 -11 -9 -25 0 -14 -4 -25 -10 -25 -5 0
-12 -16 -16 -36 -4 -19 -13 -38 -20 -41 -8 -3 -14 -13 -14 -23 0 -10 -7 -20
-15 -24 -8 -3 -15 -15 -15 -26 0 -13 -10 -24 -26 -30 -14 -6 -28 -19 -31 -29
-3 -11 -18 -25 -34 -31 -16 -7 -29 -18 -29 -26 0 -7 -9 -16 -20 -19 -11 -4
-31 -17 -44 -30 -14 -13 -36 -27 -50 -31 -14 -3 -26 -10 -26 -15 0 -5 -7 -9
-15 -9 -8 0 -15 -4 -15 -9 0 -5 -18 -12 -40 -16 -22 -4 -40 -11 -40 -16 0 -4
-22 -11 -50 -15 -27 -4 -50 -10 -50 -15 0 -5 -21 -9 -46 -9 -25 0 -43 -4 -40
-9 6 -9 -134 -21 -241 -21 -58 0 -64 2 -75 25 -6 13 -20 28 -32 31 -12 4 -24
12 -28 18 -5 8 -83 11 -253 11 -224 0 -247 -2 -256 -17 -6 -10 -15 -18 -20
-18 -13 0 -39 -26 -39 -39 0 -5 -8 -17 -17 -27 -15 -14 -18 -36 -18 -117 0
-71 4 -102 13 -104 6 -3 12 -13 12 -24 0 -11 7 -22 15 -25 8 -3 17 -14 20 -24
7 -21 54 -40 101 -40 24 0 34 -5 34 -15 0 -13 25 -15 164 -15 136 0 165 3 170
15 3 9 18 15 40 15 19 0 38 5 41 10 3 6 15 10 25 10 12 0 23 12 31 38 7 20 12
40 12 43 -2 7 -8 6 135 15 61 4 112 10 112 14 0 4 37 10 82 14 46 4 87 11 92
16 6 6 18 10 28 10 10 0 18 4 18 9 0 5 25 12 55 16 30 3 55 11 55 16 0 5 9 9
20 9 11 0 20 4 20 8 0 5 23 14 50 21 28 7 50 19 50 26 0 7 14 16 30 20 17 4
42 18 55 31 13 13 29 24 35 24 5 0 38 29 72 64 93 95 118 125 128 152 5 13 14
24 20 24 5 0 10 9 10 20 0 11 4 20 10 20 5 0 14 18 20 40 6 22 17 40 24 40 8
0 18 23 25 60 7 33 14 60 17 60 2 0 4 -483 3 -1072 0 -590 -3 -1067 -6 -1060
-2 6 -18 12 -34 12 -16 0 -29 4 -29 9 0 5 -27 12 -60 16 -33 4 -58 11 -55 15
3 4 -22 11 -55 15 -33 4 -60 11 -60 16 0 5 -13 9 -30 9 -16 0 -30 4 -30 9 0 4
-40 14 -90 21 -59 8 -90 17 -90 25 0 8 -30 17 -85 26 -48 7 -85 17 -85 23 0 6
-38 20 -85 30 -57 13 -85 23 -85 33 0 7 -13 16 -30 20 -16 3 -30 9 -30 14 0 5
-5 9 -11 9 -7 0 -22 11 -34 24 -12 13 -31 27 -42 30 -11 4 -25 18 -31 31 -6
14 -16 25 -22 25 -5 0 -10 9 -10 19 0 10 -7 21 -15 25 -8 3 -15 14 -15 24 0
11 -11 27 -24 37 -18 14 -27 35 -36 92 -7 40 -17 73 -21 73 -5 0 -9 18 -9 39
0 22 -4 41 -9 43 -6 2 -13 54 -17 116 -4 61 -11 112 -15 112 -5 0 -9 38 -9 85
l0 85 -211 0 c-201 0 -289 -10 -289 -32 0 -4 -7 -8 -15 -8 -8 0 -15 -4 -15 -9
0 -5 -13 -12 -30 -16 -16 -4 -30 -11 -30 -16 0 -5 -11 -9 -24 -9 -13 0 -26 -5
-28 -10 -2 -6 -29 -14 -61 -17 -31 -3 -57 -10 -57 -15 0 -5 -58 -8 -130 -7
-71 0 -130 5 -130 9 0 4 -25 11 -55 15 -30 3 -55 11 -55 16 0 5 -9 9 -20 9
-11 0 -20 4 -20 9 0 5 -18 11 -40 15 -22 3 -40 11 -40 16 0 6 -7 10 -15 10 -8
0 -15 4 -15 9 0 4 -20 14 -45 21 -25 7 -45 18 -45 24 0 7 -25 20 -55 31 -31
10 -55 24 -55 32 0 8 -14 19 -30 24 -16 6 -30 17 -30 25 0 8 -6 14 -13 14 -7
0 -23 9 -35 20 -12 11 -24 20 -27 20 -3 0 -27 23 -54 50 -27 28 -52 50 -57 50
-9 0 -84 80 -84 90 0 4 -11 13 -25 20 -14 7 -25 19 -25 27 0 7 -11 18 -25 25
-13 6 -28 24 -34 39 -5 16 -28 47 -50 68 -23 22 -41 45 -41 50 0 6 -12 24 -27
40 -43 46 -50 56 -57 79 -4 12 -12 22 -17 22 -5 0 -9 7 -9 15 0 8 -9 23 -20
32 -11 10 -20 25 -20 35 0 9 -8 19 -18 22 -11 4 -23 24 -30 51 -7 25 -16 45
-22 45 -5 0 -10 7 -10 15 0 8 -4 15 -9 15 -4 0 -14 21 -21 48 -8 26 -21 54
-30 62 -10 8 -21 31 -25 49 -4 19 -14 41 -21 49 -8 7 -14 22 -14 33 0 10 -4
19 -10 19 -5 0 -13 18 -16 40 -4 22 -10 40 -15 40 -5 0 -9 7 -9 15 0 8 -4 15
-9 15 -5 0 -15 32 -22 70 -7 39 -16 70 -21 70 -4 0 -8 11 -8 25 0 14 -4 25 -8
25 -5 0 -14 32 -21 70 -7 39 -17 70 -22 70 -5 0 -9 18 -9 40 0 22 -4 40 -8 40
-9 0 -32 134 -32 183 0 15 -4 27 -10 27 -5 0 -10 20 -10 44 0 24 -4 46 -9 48
-5 2 -10 64 -12 138 l-4 135 93 3 c50 1 92 7 92 12 0 6 24 10 54 10 97 0 176
12 176 26 0 8 10 14 22 14 59 0 198 24 198 34 0 6 44 19 100 30 66 13 100 23
100 32 0 8 23 18 60 26 34 7 60 17 60 24 0 7 24 18 55 24 30 6 55 16 55 21 0
5 7 9 15 9 8 0 15 4 15 9 0 5 14 12 30 16 17 4 30 11 30 16 0 5 7 9 15 9 8 0
15 4 15 9 0 5 14 12 30 16 17 4 30 10 30 15 0 4 12 11 27 15 15 3 34 15 43 25
9 10 29 22 44 26 16 4 31 15 33 24 3 10 22 23 44 30 21 7 39 18 39 24 0 6 20
20 45 31 25 11 45 25 45 32 0 6 14 16 30 22 17 5 30 16 30 24 0 7 12 20 28 28
15 7 34 22 42 32 44 53 101 107 115 107 8 0 15 7 15 15 0 8 14 21 30 30 18 9
30 23 30 36 0 11 7 22 15 25 8 4 15 12 15 18 0 7 11 19 25 26 13 7 28 22 31
33 7 22 19 39 47 65 9 9 17 20 17 25 0 7 9 20 38 52 6 7 12 17 12 22 0 12 33
53 43 53 5 0 14 -6 21 -12z m1756 -603 c0 -9 9 -15 21 -15 42 0 148 -34 154
-49 14 -38 30 -60 45 -64 10 -2 22 -24 30 -51 7 -26 19 -46 26 -46 20 0 21
-937 1 -954 -7 -6 -21 -37 -32 -68 -11 -35 -24 -58 -33 -58 -7 0 -16 -9 -19
-20 -3 -11 -20 -24 -39 -30 -19 -7 -34 -17 -34 -24 0 -21 -94 -36 -221 -36
l-119 0 0 693 c0 380 3 702 6 715 6 21 11 22 110 22 86 0 104 -3 104 -15z
m-4130 -718 l0 -703 -112 3 c-130 5 -218 19 -218 36 0 7 -13 18 -30 25 -16 8
-30 19 -30 25 0 7 -9 18 -20 25 -11 7 -20 21 -20 32 0 11 -6 20 -14 20 -30 0
-36 95 -36 545 0 440 7 545 34 545 7 0 18 15 26 34 7 19 24 39 37 45 12 6 23
17 23 24 0 27 89 45 228 46 l132 1 0 -703z m241 -957 c5 0 9 -9 9 -20 0 -11 4
-20 9 -20 5 0 12 -18 16 -40 4 -22 13 -47 21 -54 8 -8 14 -24 14 -35 0 -12 4
-21 8 -21 4 0 13 -20 20 -46 7 -25 21 -55 32 -67 11 -12 26 -39 32 -62 7 -22
22 -49 35 -60 13 -11 23 -28 23 -37 0 -9 7 -18 15 -22 8 -3 15 -14 15 -25 0
-10 7 -21 15 -25 8 -3 15 -14 15 -25 0 -11 9 -22 20 -26 11 -3 20 -14 20 -24
0 -9 9 -27 20 -39 11 -12 20 -24 20 -27 0 -4 6 -12 13 -20 27 -29 47 -56 47
-64 0 -5 7 -11 15 -15 8 -3 15 -12 15 -19 0 -7 11 -20 25 -27 14 -7 25 -20 25
-28 0 -16 6 -23 61 -78 17 -18 35 -36 40 -40 5 -5 28 -30 52 -56 24 -27 51
-48 60 -48 9 0 17 -7 17 -15 0 -8 9 -19 20 -25 11 -6 20 -17 20 -25 0 -7 18
-21 40 -31 38 -17 53 -45 32 -58 -5 -3 -12 -85 -16 -183 -4 -97 -11 -180 -15
-183 -5 -3 -12 -38 -16 -77 -4 -40 -11 -73 -16 -73 -5 0 -9 -11 -9 -24 0 -14
-6 -31 -13 -38 -8 -7 -17 -26 -21 -41 -3 -15 -11 -27 -16 -27 -6 0 -10 -9 -10
-19 0 -10 -7 -21 -15 -25 -8 -3 -15 -12 -15 -19 0 -16 -61 -87 -75 -87 -4 0
-18 -11 -31 -25 -13 -14 -28 -25 -34 -25 -5 0 -10 -4 -10 -10 0 -5 -11 -12
-25 -16 -14 -3 -25 -12 -25 -18 0 -11 -154 -54 -172 -48 -4 1 -5 -4 -2 -12 4
-10 -18 -16 -86 -26 -65 -9 -90 -17 -86 -26 3 -8 -20 -16 -80 -25 -46 -7 -84
-16 -84 -21 0 -4 -16 -8 -35 -8 -19 0 -35 -4 -35 -9 0 -5 -22 -11 -50 -15 -27
-4 -52 -11 -55 -16 -3 -5 -30 -12 -60 -15 -30 -4 -55 -11 -55 -16 0 -5 -13 -9
-30 -9 -16 0 -30 -4 -30 -10 0 -5 -9 -10 -20 -10 -20 0 -20 7 -20 1199 l0
1200 170 3 c113 2 173 7 178 14 4 7 16 14 27 16 15 3 22 -3 29 -24 5 -15 13
-28 17 -28z m2394 -1470 c4 -66 11 -120 16 -120 5 0 9 -18 9 -40 0 -22 4 -40
8 -40 11 0 34 -162 24 -172 -4 -4 -31 -14 -60 -20 -29 -7 -52 -18 -52 -25 0
-6 -25 -17 -55 -24 -31 -7 -55 -18 -55 -25 0 -13 -11 -18 -67 -29 -18 -4 -33
-11 -33 -16 0 -5 -11 -9 -25 -9 -14 0 -25 -4 -25 -10 0 -5 -16 -12 -35 -16
-19 -3 -35 -10 -35 -14 0 -4 -18 -10 -40 -14 -22 -3 -40 -11 -40 -16 0 -6 -10
-10 -23 -10 -16 0 -28 -9 -38 -27 -8 -16 -24 -37 -36 -48 -13 -11 -23 -31 -23
-43 0 -12 -4 -22 -10 -22 -5 0 -10 -9 -10 -20 0 -11 -6 -23 -14 -26 -8 -3 -17
-21 -21 -41 -13 -70 -45 -72 -60 -3 -4 19 -14 40 -21 48 -8 7 -14 22 -14 33 0
10 -4 19 -10 19 -5 0 -10 9 -10 19 0 11 -7 26 -15 35 -8 8 -15 22 -15 30 0 9
-7 16 -15 16 -9 0 -18 6 -21 13 -2 7 -14 14 -26 14 -12 1 -24 6 -27 11 -3 5
-23 12 -43 16 -21 4 -38 11 -38 16 0 5 -16 12 -35 16 -19 3 -35 10 -35 15 0 5
-7 9 -15 9 -8 0 -15 5 -15 10 0 6 -7 10 -16 10 -34 0 -94 24 -94 37 0 7 -7 13
-16 13 -31 0 -94 23 -94 34 0 7 -31 20 -70 31 -61 17 -70 22 -70 42 0 13 5 23
10 23 6 0 10 15 10 34 0 19 4 36 9 38 5 2 13 46 17 98 3 52 10 97 15 98 5 2 9
39 9 83 0 69 2 79 18 79 10 0 24 -9 32 -20 8 -10 27 -22 42 -25 15 -4 28 -11
28 -16 0 -5 6 -9 14 -9 8 0 16 -4 18 -10 2 -5 27 -15 56 -22 28 -7 52 -18 52
-25 0 -7 26 -18 60 -25 33 -6 60 -17 60 -24 0 -21 189 -37 359 -30 177 7 221
13 221 31 0 7 25 17 60 24 37 7 60 17 60 25 0 7 20 19 45 26 25 7 45 17 45 21
0 5 7 9 15 9 8 0 15 4 15 9 0 5 12 12 27 16 15 3 30 10 33 14 9 13 54 41 66
41 8 0 15 -38 19 -120z m-1469 -576 c19 -3 34 -10 34 -15 0 -5 9 -9 20 -9 11
0 20 -4 20 -9 0 -5 14 -12 30 -16 17 -4 30 -13 30 -21 0 -8 7 -14 15 -14 35 0
135 -34 135 -46 0 -7 23 -17 55 -24 30 -6 55 -17 55 -24 0 -6 27 -18 60 -25
47 -11 60 -17 60 -32 0 -11 4 -19 9 -19 5 0 12 -13 16 -30 4 -16 10 -30 15
-30 5 0 12 -14 15 -32 4 -17 14 -38 21 -46 8 -7 14 -22 14 -33 0 -10 5 -19 10
-19 6 0 10 -9 10 -20 0 -11 4 -20 10 -20 5 0 13 -12 16 -27 4 -15 13 -34 21
-41 7 -7 13 -22 13 -33 0 -10 4 -19 9 -19 5 0 12 -11 15 -25 4 -15 16 -27 31
-31 14 -3 25 -10 25 -15 0 -5 16 -9 35 -9 19 0 35 4 35 9 0 5 11 12 25 15 16
4 25 13 25 27 0 11 7 22 15 25 8 4 15 15 15 25 0 10 4 19 10 19 5 0 14 18 20
40 6 22 15 40 20 40 6 0 10 9 10 20 0 11 5 20 10 20 6 0 10 9 10 19 0 11 6 26
14 33 7 8 17 29 21 46 3 18 10 32 15 32 5 0 11 14 15 30 4 17 11 30 16 30 5 0
9 9 9 20 0 16 11 22 60 32 34 7 60 17 60 24 0 7 15 15 33 19 56 11 67 16 67
29 0 7 34 19 80 30 54 12 80 22 80 32 0 8 10 14 24 14 14 0 31 7 40 15 8 8 19
15 24 15 5 0 23 7 38 15 40 21 61 19 75 -7 7 -13 18 -27 25 -31 8 -4 14 -16
14 -26 0 -10 11 -23 25 -29 14 -6 25 -18 25 -26 0 -7 11 -17 25 -20 15 -4 30
-17 35 -31 6 -15 17 -25 29 -25 11 0 31 -11 45 -25 13 -13 36 -27 50 -31 14
-3 26 -10 26 -15 0 -5 18 -12 40 -15 22 -4 40 -10 40 -15 0 -5 11 -9 25 -9 14
0 25 -4 25 -9 0 -6 20 -13 45 -17 25 -3 48 -10 51 -15 3 -5 14 -9 25 -9 10 0
19 -4 19 -9 0 -5 43 -14 95 -21 62 -8 95 -17 95 -25 0 -8 33 -17 95 -26 55 -7
95 -17 95 -24 0 -9 159 -45 203 -45 9 0 17 -6 17 -14 0 -10 22 -18 75 -27 44
-7 75 -17 75 -24 0 -7 32 -17 80 -24 44 -8 80 -17 80 -22 0 -5 8 -9 18 -9 9 0
26 -7 36 -15 11 -8 28 -15 39 -15 10 0 25 -7 33 -15 9 -8 24 -15 35 -15 10 0
19 -6 19 -14 0 -9 20 -19 50 -27 28 -7 50 -18 50 -24 0 -11 26 -27 63 -39 9
-3 17 -12 17 -21 0 -8 5 -16 10 -16 6 -1 16 -2 22 -3 7 0 19 -13 26 -28 7 -16
19 -28 27 -28 16 0 95 -74 95 -90 0 -5 6 -10 13 -10 8 0 22 -18 32 -39 9 -22
26 -41 36 -44 11 -3 19 -14 19 -25 0 -12 5 -24 10 -27 6 -3 10 -14 10 -24 0
-10 9 -21 20 -24 13 -3 22 -17 27 -37 3 -18 13 -35 22 -37 12 -3 22 -30 36
-89 10 -46 24 -84 30 -84 7 0 17 -36 25 -85 8 -48 18 -85 24 -85 7 0 19 -49
31 -120 12 -76 23 -120 31 -120 7 0 18 -42 30 -115 11 -70 22 -115 29 -115 7
0 19 -46 31 -120 12 -75 23 -120 31 -120 7 0 16 -35 24 -90 8 -56 17 -90 25
-90 12 0 15 -11 35 -153 8 -60 16 -87 26 -87 7 0 13 -7 13 -15 0 -8 -6 -15
-13 -15 -7 0 -19 -9 -27 -20 -8 -11 -21 -20 -30 -20 -32 0 -90 -21 -90 -33 0
-12 -65 -37 -95 -37 -8 0 -15 -7 -15 -15 0 -13 -19 -20 -102 -39 -16 -4 -28
-13 -28 -20 0 -9 -17 -16 -45 -20 -25 -4 -51 -14 -59 -22 -8 -8 -24 -14 -34
-14 -11 0 -22 -4 -24 -9 -1 -6 -16 -12 -33 -15 -16 -3 -31 -10 -33 -16 -2 -5
-15 -10 -28 -10 -13 0 -24 -4 -24 -9 0 -5 -16 -12 -35 -15 -19 -4 -35 -11 -35
-16 0 -4 -22 -11 -50 -15 -27 -4 -50 -11 -50 -16 0 -5 -11 -9 -25 -9 -14 0
-25 -4 -25 -9 0 -5 -18 -12 -40 -16 -22 -4 -40 -11 -40 -16 0 -5 -11 -9 -25
-9 -14 0 -25 -4 -25 -10 0 -5 -9 -10 -20 -10 -14 0 -20 7 -20 21 0 14 5 19 14
16 16 -6 26 108 26 297 0 167 -9 256 -26 256 -9 0 -14 11 -14 28 0 61 -32 202
-46 202 -8 0 -14 7 -14 16 0 40 -33 154 -45 154 -7 0 -17 24 -24 60 -7 33 -16
60 -22 60 -5 0 -9 7 -9 15 0 8 -4 15 -8 15 -5 0 -15 25 -22 55 -7 30 -17 55
-22 55 -4 0 -8 9 -8 20 0 11 -4 20 -9 20 -5 0 -14 20 -20 45 -7 28 -17 45 -26
45 -8 0 -15 8 -15 18 0 10 -3 22 -7 26 -5 4 -8 11 -9 14 -3 30 -18 62 -29 62
-7 0 -16 11 -19 25 -7 28 -54 41 -112 32 -54 -9 -69 -31 -69 -103 0 -51 4 -66
21 -81 11 -10 27 -39 34 -65 8 -27 18 -48 22 -48 4 0 8 -9 8 -20 0 -11 4 -20
9 -20 4 0 14 -20 21 -45 7 -25 17 -45 21 -45 5 0 9 -7 9 -16 0 -8 6 -22 14
-29 7 -8 17 -34 20 -60 5 -27 12 -45 21 -45 16 0 19 -7 35 -92 8 -38 19 -68
25 -68 11 0 35 -82 35 -121 0 -10 5 -19 10 -19 6 0 10 -11 10 -24 0 -13 4 -26
9 -28 13 -4 31 -175 31 -285 0 -118 -19 -317 -31 -321 -5 -2 -9 -18 -9 -36 0
-39 -15 -56 -52 -56 -17 0 -28 -5 -28 -14 0 -10 -25 -18 -85 -27 -47 -7 -85
-16 -85 -21 0 -4 -16 -8 -35 -8 -19 0 -35 -4 -35 -8 0 -9 -62 -22 -207 -45
-40 -6 -73 -15 -73 -19 0 -4 -18 -8 -40 -8 -22 0 -40 -4 -40 -9 0 -5 -43 -12
-95 -16 -52 -4 -95 -11 -95 -16 0 -5 -20 -9 -45 -9 -25 0 -45 -4 -45 -8 0 -8
-263 -32 -352 -32 -34 0 -48 -4 -48 -14 0 -20 -281 -31 -815 -31 -508 0 -815
11 -815 29 0 8 -59 16 -197 25 -109 7 -199 17 -201 22 -2 5 -26 9 -53 9 -27 0
-49 4 -49 9 0 5 -43 12 -95 16 -52 4 -95 11 -95 16 0 5 -18 9 -40 9 -22 0 -40
4 -40 9 0 5 -31 12 -70 16 -38 4 -70 11 -70 15 0 4 -34 11 -75 15 -41 4 -75
11 -75 16 0 5 -13 9 -30 9 -16 0 -30 4 -30 9 0 4 -40 14 -90 21 -60 9 -90 17
-90 26 0 7 -14 14 -32 16 -31 3 -33 6 -36 46 -2 23 -7 42 -13 42 -5 0 -9 18
-9 39 0 22 -5 41 -12 43 -18 6 -18 420 0 425 7 3 12 22 12 49 0 24 4 44 8 44
5 0 14 36 21 80 9 53 18 80 26 80 8 0 18 22 25 55 6 30 16 55 21 55 5 0 9 9 9
20 0 11 3 20 8 20 8 0 32 71 32 95 0 8 5 15 10 15 6 0 10 9 10 20 0 11 4 20 9
20 5 0 15 23 22 50 7 27 16 50 21 50 4 0 8 7 8 15 0 8 4 15 8 15 4 0 14 21 22
48 7 26 21 54 30 62 22 19 44 120 35 159 -11 53 -40 75 -95 75 -39 0 -53 -5
-70 -24 -11 -13 -20 -29 -20 -37 0 -7 -7 -16 -15 -19 -8 -4 -15 -15 -15 -25 0
-10 -4 -19 -9 -19 -5 0 -15 -23 -22 -50 -7 -27 -19 -50 -26 -50 -7 0 -17 -18
-23 -40 -6 -22 -14 -40 -18 -40 -4 0 -9 -12 -10 -27 -1 -15 -6 -29 -11 -32 -5
-3 -15 -26 -22 -51 -7 -25 -20 -52 -29 -60 -9 -8 -23 -44 -30 -80 -7 -36 -21
-72 -30 -80 -9 -8 -22 -43 -30 -77 -7 -35 -17 -63 -21 -63 -5 0 -9 -15 -9 -34
0 -19 -5 -36 -11 -38 -5 -2 -15 -51 -21 -108 -7 -67 -16 -108 -25 -113 -10 -6
-13 -44 -13 -157 0 -127 2 -150 15 -150 11 0 15 -13 15 -52 0 -29 3 -70 6 -91
6 -33 4 -37 -15 -37 -11 0 -21 5 -21 10 0 6 -9 10 -20 10 -11 0 -20 4 -20 9 0
6 -20 13 -45 17 -25 3 -45 10 -45 15 0 5 -11 9 -25 9 -14 0 -25 4 -25 9 0 5
-18 12 -40 16 -22 4 -40 11 -40 15 0 5 -20 12 -45 16 -25 3 -45 10 -45 15 0 5
-9 9 -20 9 -11 0 -20 4 -20 9 0 5 -18 12 -40 16 -22 4 -40 11 -40 16 0 5 -11
9 -25 9 -14 0 -25 4 -25 10 0 5 -20 15 -45 21 -25 6 -45 16 -45 23 0 12 -48
29 -112 41 -22 4 -38 13 -38 21 0 7 -18 18 -40 24 -24 6 -40 17 -40 25 0 8 -8
15 -17 15 -41 0 -92 21 -98 40 -4 11 -10 18 -14 16 -4 -3 -13 -1 -20 3 -17 11
-5 91 14 91 8 0 15 20 19 53 16 133 29 197 40 197 8 0 19 45 31 120 11 75 22
120 30 120 7 0 19 45 30 120 12 72 24 120 31 120 6 0 16 37 24 90 7 50 17 93
21 96 5 3 9 15 9 28 0 12 4 26 10 32 5 5 15 51 22 102 7 50 17 92 23 92 6 0
19 45 30 100 10 57 23 100 30 100 6 0 18 23 25 52 9 33 21 53 32 56 10 2 18 9
18 15 0 25 33 97 45 97 6 0 17 11 23 25 6 14 16 25 22 25 5 0 10 7 10 16 0 8
5 12 10 9 6 -3 10 1 10 9 0 20 82 106 102 106 9 0 18 9 21 21 3 11 15 23 26
26 12 3 21 11 21 18 0 7 18 20 40 29 22 9 40 22 40 29 0 8 22 19 50 27 28 7
50 19 50 27 0 7 12 16 27 19 15 4 34 13 41 21 7 7 24 13 38 13 13 0 24 5 24
10 0 6 11 10 25 10 14 0 25 4 25 8 0 5 29 14 65 21 39 8 65 18 65 26 0 8 20
15 53 19 94 12 117 18 117 31 0 8 43 18 125 31 79 11 125 23 125 30 0 11 99
34 143 34 9 0 17 6 17 13 0 10 26 18 83 26 45 6 84 16 85 21 2 6 17 10 33 10
16 0 29 4 29 9 0 5 25 12 55 16 30 3 55 11 55 16 0 5 11 9 25 9 14 0 25 4 25
9 0 5 14 12 30 16 17 4 30 10 30 15 0 5 14 11 30 15 17 4 30 11 30 16 0 5 7 9
15 9 8 0 15 4 15 9 0 5 14 14 30 21 17 7 30 18 30 25 0 7 14 18 30 24 17 5 30
16 30 24 0 7 11 20 25 27 14 7 25 22 25 32 0 10 7 21 15 24 8 3 17 15 21 27 8
26 28 48 32 36 2 -4 19 -11 38 -15z"/>
<path d="M4250 7057 c-35 -9 -46 -17 -48 -34 -2 -13 -7 -23 -12 -23 -4 0 -11
-18 -15 -40 -4 -22 -11 -40 -17 -40 -11 0 -8 -22 13 -102 8 -30 20 -50 35 -59
13 -7 24 -18 24 -24 0 -7 19 -17 41 -23 53 -13 159 3 159 24 0 8 6 17 14 20 8
3 18 19 21 35 4 16 11 29 16 29 5 0 9 29 9 65 0 37 -4 65 -10 65 -5 0 -10 9
-10 19 0 11 -6 26 -13 33 -8 7 -16 19 -18 27 -6 17 -74 41 -114 40 -16 0 -50
-6 -75 -12z"/>
<path d="M5865 7063 c-53 -12 -85 -26 -85 -38 0 -8 -7 -18 -15 -23 -19 -10
-31 -118 -21 -184 5 -34 13 -48 31 -58 14 -7 25 -19 25 -26 0 -17 84 -36 128
-28 60 10 72 15 72 29 0 8 9 19 20 25 11 6 20 20 20 30 0 11 5 20 10 20 6 0
10 32 10 75 0 43 -4 75 -10 75 -5 0 -10 9 -10 20 0 11 -7 23 -15 26 -8 4 -15
13 -15 20 0 23 -96 48 -145 37z"/>
<path d="M4858 6359 c-10 -5 -18 -21 -18 -34 0 -14 -4 -25 -10 -25 -5 0 -10
-11 -10 -25 0 -14 5 -25 10 -25 6 0 10 -11 10 -23 0 -26 38 -77 58 -77 7 0 12
-4 12 -10 0 -5 16 -12 35 -16 19 -3 35 -10 35 -15 0 -5 16 -9 35 -9 19 0 35
-4 35 -10 0 -6 30 -10 71 -10 44 0 68 4 64 10 -4 6 8 10 29 10 20 0 36 4 36 9
0 5 14 12 30 16 17 4 30 10 30 15 0 4 11 11 24 14 14 3 28 15 31 26 3 11 10
20 15 20 14 0 22 59 16 105 -6 37 -12 45 -38 54 -17 6 -45 11 -61 11 -40 0
-97 -21 -97 -36 0 -15 -33 -24 -95 -24 -60 0 -95 9 -95 23 0 32 -110 51 -152
26z"/>
<path d="M4648 5780 c-22 -23 -28 -38 -28 -74 0 -25 5 -46 10 -46 6 0 10 -9
10 -20 0 -11 7 -23 15 -26 8 -4 15 -14 15 -23 0 -9 21 -34 46 -56 25 -22 53
-48 62 -57 9 -10 22 -18 29 -18 7 0 13 -4 13 -10 0 -5 11 -12 25 -16 14 -3 25
-10 25 -15 0 -5 9 -9 19 -9 11 0 21 -4 23 -10 2 -5 31 -13 66 -16 34 -4 62
-11 62 -15 0 -5 36 -9 80 -9 44 0 80 4 80 9 0 4 28 11 63 15 34 3 64 11 65 16
2 6 10 10 18 10 8 0 14 4 14 9 0 5 14 12 30 16 17 4 30 11 30 16 0 5 6 9 14 9
7 0 22 11 32 25 10 14 23 25 27 25 16 0 77 67 77 84 0 9 7 19 15 22 8 4 15 17
15 30 0 13 5 24 10 24 6 0 10 14 10 30 0 17 -4 30 -10 30 -5 0 -10 4 -10 10 0
15 -33 50 -47 50 -7 0 -13 5 -13 10 0 6 -17 10 -37 10 -28 -1 -43 -7 -58 -26
-11 -14 -28 -34 -37 -46 -10 -12 -18 -26 -18 -33 0 -6 -18 -19 -40 -29 -22
-10 -40 -23 -40 -31 0 -13 -76 -35 -120 -35 -11 0 -20 -7 -20 -15 0 -12 -13
-15 -55 -15 -40 0 -57 4 -61 15 -4 8 -15 15 -26 15 -34 0 -98 22 -98 34 0 6
-18 19 -40 29 -22 10 -40 25 -40 33 0 8 -6 17 -14 20 -8 3 -17 16 -20 30 -4
14 -16 26 -31 30 -14 3 -25 10 -25 15 0 5 -19 9 -42 9 -34 -1 -49 -7 -70 -30z"/>
</g>
</svg>
